Coordinates
version=1
nRows=32
nColumns=22
inDegrees=yes

Units are S.I. units (second, meters, Newtons, ...)
If the header above contains a line with 'inDegrees', this indicates whether rotational values are in degrees (yes) or radians (no).

endheader
time	pelvis_tilt	pelvis_list	pelvis_rotation	pelvis_tx	pelvis_ty	pelvis_tz	hip_flexion_r	hip_adduction_r	hip_rotation_r	knee_angle_r	ankle_angle_r	subtalar_angle_r	hip_flexion_l	hip_adduction_l	hip_rotation_l	knee_angle_l	ankle_angle_l	subtalar_angle_l	lumbar_extension	lumbar_bending	lumbar_rotation
      2.94000000	     -5.40494561	     -7.45456885	      7.70458152	      0.35910283	      0.93939488	     -0.26605066	      5.38212503	      8.15664750	     -7.10370177	    -26.87153767	     19.08205100	      4.45286639	     29.74272734	     -6.94109499	     10.22095004	    -10.40333862	      8.50546071	      6.44986991	     -1.37974179	      5.41883784	      1.81307790
      2.95000000	     -5.36800382	     -7.45296668	      7.84010584	      0.35145054	      0.94016333	     -0.26408910	      5.81639067	      8.25028870	     -7.32907350	    -26.77319801	     19.02943766	      3.95283731	     29.93900735	     -6.90847069	      9.81145543	    -10.81296100	      8.61872244	      5.98834322	     -1.48582685	      5.46099890	      1.73026492
      2.96000000	     -5.32584327	     -7.42915016	      7.96829255	      0.34399131	      0.94105490	     -0.26226289	      6.22822072	      8.31098241	     -7.53477487	    -26.67410516	     18.98240333	      3.58603273	     30.17675335	     -6.83583006	      9.33616941	    -11.52190896	      8.63215072	      5.54726038	     -1.58171535	      5.48149958	      1.65910503
      2.97000000	     -5.25063776	     -7.38414677	      8.12349696	      0.33675591	      0.94211342	     -0.26062437	      6.55818600	      8.34713073	     -7.73219294	    -26.51796094	     18.85555528	      3.20162767	     30.40243731	     -6.71778046	      8.86813617	    -12.47889044	      8.59021861	      5.05201488	     -1.69241910	      5.49005785	      1.53318940
      2.98000000	     -5.14410769	     -7.32090708	      8.29099173	      0.32974455	      0.94332785	     -0.25911930	      6.80952553	      8.36211332	     -7.92270326	    -26.30951046	     18.67424307	      2.85606908	     30.58911986	     -6.57330804	      8.43371119	    -13.62808518	      8.54753077	      4.60289555	     -1.81790697	      5.48263692	      1.37943789
      2.99000000	     -5.01131841	     -7.24471025	      8.46795210	      0.32293488	      0.94467981	     -0.25775985	      6.99009822	      8.35614803	     -8.12024628	    -26.05115821	     18.44666905	      2.55635111	     30.72088611	     -6.40976409	      8.06261235	    -14.91551548	      8.53364965	      4.25047589	     -1.95365877	      5.46929418	      1.20922699
      3.00000000	     -4.84107673	     -7.13106991	      8.63213858	      0.31632883	      0.94617479	     -0.25651626	      7.09105842	      8.30290417	     -8.31073426	    -25.76248337	     18.22581686	      2.46238752	     30.75124706	     -6.22134593	      7.73882871	    -16.28472735	      8.60668274	      4.10535310	     -2.11996435	      5.42228385	      1.05407391
      3.01000000	     -4.71295236	     -7.06345058	      8.82188238	      0.30982714	      0.94766701	     -0.25538743	      7.20147469	      8.29251203	     -8.50631103	    -25.40402458	     17.92560781	      2.17531822	     30.79360339	     -6.04494961	      7.59463061	    -17.71356641	      8.67653663	      3.95234297	     -2.21474441	      5.42288027	      0.83623888
      3.02000000	     -4.56082064	     -6.93329905	      8.95741595	      0.30347609	      0.94925363	     -0.25434455	      7.27112691	      8.20203061	     -8.68581960	    -25.06802405	     17.65319538	      2.07639512	     30.70689829	     -5.83481734	      7.47083678	    -19.14057239	      8.84180493	      3.92696148	     -2.33879314	      5.36293942	      0.69516266
      3.03000000	     -4.42757271	     -6.81816616	      9.08930815	      0.29721414	      0.95084392	     -0.25338408	      7.33549908	      8.12168400	     -8.85769125	    -24.69547561	     17.34368453	      1.96616575	     30.57543420	     -5.62665331	      7.47714150	    -20.56323791	      9.04112098	      3.99450958	     -2.43104829	      5.31746866	      0.53654323
      3.04000000	     -4.32082070	     -6.70012407	      9.19774030	      0.29102037	      0.95242622	     -0.25249853	      7.40721826	      8.03512149	     -8.99011775	    -24.29829544	     16.97776094	      1.75814745	     30.39750779	     -5.41297224	      7.55768015	    -21.96252259	      9.25793853	      4.31807802	     -2.49082530	      5.26919975	      0.37480983
      3.05000000	     -4.22151358	     -6.55756734	      9.25106451	      0.28491807	      0.95396321	     -0.25167614	      7.48802333	      7.90751428	     -9.10601383	    -23.93663643	     16.68581444	      1.73658758	     30.14096967	     -5.19108574	      7.65885477	    -23.33078524	      9.56890642	      4.43680118	     -2.54311016	      5.19744135	      0.29201083
      3.06000000	     -4.13160687	     -6.44406807	      9.31070814	      0.27890103	      0.95547915	     -0.25091538	      7.53900946	      7.81954184	     -9.18056799	    -23.50304790	     16.32813897	      1.65467712	     29.84257380	     -4.99073072	      7.83046637	    -24.67148382	      9.88593388	      4.86188897	     -2.57335167	      5.15495168	      0.16100704
      3.07000000	     -4.05106591	     -6.32020606	      9.31165125	      0.27293594	      0.95691231	     -0.25017541	      7.62134143	      7.71084492	     -9.23075565	    -23.12889859	     15.99059215	      1.60076018	     29.49390786	     -4.80899929	      7.94999222	    -25.99201504	     10.25134485	      5.24386399	     -2.59926981	      5.10196247	      0.10245041
      3.08000000	     -3.97588726	     -6.20757589	      9.29138906	      0.26702936	      0.95826761	     -0.24946955	      7.70974805	      7.61276350	     -9.25646595	    -22.76294624	     15.64849207	      1.55755752	     29.10318956	     -4.65341286	      8.05227972	    -27.28839868	     10.62727019	      5.61639987	     -2.61768811	      5.05914167	      0.05457625
      3.09000000	     -3.90454709	     -6.10631367	      9.25339994	      0.26118668	      0.95952550	     -0.24880805	      7.81202507	      7.52155132	     -9.27370690	    -22.42393369	     15.30965222	      1.50604963	     28.67481197	     -4.52860796	      8.11226846	    -28.56320741	     11.02277578	      5.99413120	     -2.62683127	      5.03036576	      0.01984172
      3.10000000	     -3.82748047	     -6.04131099	      9.21419331	      0.25541401	      0.96068118	     -0.24818251	      7.90632469	      7.47170270	     -9.27197744	    -22.08000543	     14.97924074	      1.46164812	     28.21577116	     -4.45806630	      8.13900705	    -29.82858119	     11.41676138	      6.27715745	     -2.63193222	      5.04054922	     -0.02711607
      3.11000000	     -3.74988133	     -6.00726720	      9.17331140	      0.24970157	      0.96172195	     -0.24757629	      8.00804372	      7.45523077	     -9.25922694	    -21.74924489	     14.65585511	      1.40839878	     27.73333297	     -4.44305876	      8.11579045	    -31.08407880	     11.80129053	      6.50295268	     -2.62664355	      5.07949384	     -0.08411625
      3.12000000	     -3.68543338	     -6.00304365	      9.12511878	      0.24402635	      0.96261319	     -0.24699454	      8.14813599	      7.46263998	     -9.24378605	    -21.46184265	     14.36592354	      1.40348615	     27.24280115	     -4.48222821	      8.04043114	    -32.33062403	     12.17890740	      6.53691791	     -2.59813687	      5.14565212	     -0.14104933
      3.13000000	     -3.60897262	     -6.03281360	      9.09401529	      0.23840074	      0.96341359	     -0.24644462	      8.27919204	      7.50798519	     -9.23206721	    -21.17352376	     14.05778658	      1.37132137	     26.72485274	     -4.58082464	      7.92547575	    -33.56865396	     12.51681860	      6.59547591	     -2.56928121	      5.24527623	     -0.23541729
      3.14000000	     -3.53393523	     -6.08831796	      9.07662173	      0.23281069	      0.96410460	     -0.24594039	      8.42290029	      7.57678350	     -9.22599765	    -20.90169919	     13.75987732	      1.31782522	     26.18832953	     -4.72713968	      7.77784380	    -34.79119620	     12.81489470	      6.63941637	     -2.52755348	      5.36872830	     -0.36374023
      3.15000000	     -3.45821093	     -6.17173885	      9.07374025	      0.22724280	      0.96469013	     -0.24547719	      8.58470014	      7.66772280	     -9.24394999	    -20.65592482	     13.46804868	      1.26127753	     25.63427247	     -4.92439142	      7.60339280	    -36.00035922	     13.08131523	      6.64303809	     -2.47567195	      5.51649952	     -0.51293341
      3.16000000	     -3.38115062	     -6.28074101	      9.09289166	      0.22170069	      0.96518600	     -0.24508131	      8.75680371	      7.77859594	     -9.27775987	    -20.42466029	     13.17900788	      1.20224780	     25.06066153	     -5.16611310	      7.41270358	    -37.19018036	     13.30196858	      6.61265828	     -2.41331495	      5.69115309	     -0.69978903
      3.17000000	     -3.29926421	     -6.41953899	      9.14281916	      0.21619025	      0.96561240	     -0.24473339	      8.92589365	      7.91972075	     -9.31559837	    -20.18691137	     12.88045353	      1.11430177	     24.46345758	     -5.45434530	      7.22680263	    -38.35314170	     13.48078450	      6.55211286	     -2.34218431	      5.89181569	     -0.94980500
      3.18000000	     -3.21378336	     -6.57076140	      9.21032519	      0.21070196	      0.96597101	     -0.24444240	      9.11678068	      8.06111819	     -9.39836273	    -19.99139939	     12.59394066	      1.05178944	     23.83943427	     -5.77447063	      7.02825647	    -39.48903160	     13.62446190	      6.45426548	     -2.26655356	      6.10145546	     -1.20311530
      3.19000000	     -3.12077285	     -6.73760588	      9.30391059	      0.20524054	      0.96628437	     -0.24420795	      9.31268305	      8.21097823	     -9.50666797	    -19.81424250	     12.30701010	      1.00554985	     23.18553618	     -6.12609345	      6.83557408	    -40.59102014	     13.73235250	      6.32738231	     -2.18871320	      6.32355939	     -1.48986091
      3.20000000	     -3.01956151	     -6.91298044	      9.42225509	      0.19980648	      0.96656474	     -0.24402276	      9.51557433	      8.36222579	     -9.64134520	    -19.66128946	     12.02085803	      0.97736044	     22.49842122	     -6.50159415	      6.65126605	    -41.65489829	     13.81145763	      6.17873168	     -2.11133600	      6.54802287	     -1.80614440
      3.21000000	     -2.90832594	     -7.09460203	      9.57008632	      0.19439993	      0.96682269	     -0.24390398	      9.71874882	      8.51295208	     -9.79831854	    -19.52643936	     11.73302189	      0.96142499	     21.77698327	     -6.89160052	      6.49038183	    -42.67691123	     13.87141904	      6.00658276	     -2.03526231	      6.77707893	     -2.14976842
      3.22000000	     -2.78866581	     -7.27591112	      9.74336125	      0.18901463	      0.96706408	     -0.24384834	      9.92846819	      8.65509922	     -9.97789229	    -19.41768774	     11.44532323	      0.95774503	     21.01995964	     -7.28938180	      6.35175240	    -43.65192960	     13.91724626	      5.82018402	     -1.96040388	      7.00054423	     -2.51778475
      3.23000000	     -2.66233894	     -7.45191631	      9.94029984	      0.18364578	      0.96729098	     -0.24384427	     10.14333452	      8.78566789	    -10.17223355	    -19.33114051	     11.15764534	      0.95996351	     20.22936133	     -7.68587542	      6.24357485	    -44.57748622	     13.95310905	      5.62142028	     -1.88496427	      7.21026318	     -2.90880408
      3.24000000	     -2.53376877	     -7.61975790	     10.15808602	      0.17826410	      0.96750289	     -0.24391267	     10.37222228	      8.89816096	    -10.38129990	    -19.27031750	     10.86985076	      0.96563363	     19.41038944	     -8.07451301	      6.16466270	    -45.44910471	     13.97808732	      5.42493486	     -1.80855061	      7.40685390	     -3.31263480
      3.25000000	     -2.40702170	     -7.77576729	     10.39125500	      0.17286497	      0.96769623	     -0.24403099	     10.61585983	      8.99110683	    -10.59783759	    -19.23203287	     10.58345755	      0.96969847	     18.56853805	     -8.44779375	      6.11907260	    -46.26439905	     13.99012808	      5.23872095	     -1.72558520	      7.58121746	     -3.72990356
